<?xml version="1.0" encoding="UTF-8"?>
<svg id="Layer_1" data-name="Layer 1" xmlns="http://www.w3.org/2000/svg" viewBox="0 0 500 673.45">
  <defs>
    <style>
      .cls-1 {
        fill: #231f20;
      }

      .cls-2 {
        fill: #ed1c24;
      }

      .cls-3 {
        fill: #f99b1c;
      }

      .cls-4 {
        fill: #00aeef;
      }
    </style>
  </defs>
  <path class="cls-2" d="M247.57,6.05c-.54,1.51-1.82,2.71-3.82,2.74-2.27.04-4.53.14-6.79.33-5.63.44-11.22,1.35-16.73,2.71-51.71,12.72-87.44,60.93-100.98,112.12-17.65,66.68-6.21,137.83,11.2,203.22,9.06,34.01,20.4,67.35,32.96,100.12,11.97,31.19,25.14,62.37,31.38,95.48,4.65,24.7,5.77,50.7-.1,75.3-.07.3-.14.58-.22.88h-8.77c2.8-10.49,4.16-21.41,4.43-32.18.71-27.73-5.36-54.75-13.97-80.84-10.91-33.15-24.86-65.15-36.12-98.19-11.32-33.16-20.96-67-27.94-101.44-12.78-63.2-17.18-133.25,8.94-193.62C140.65,47.41,179.26,9.54,226.93,1.55c3.36-.56,6.77-.99,10.23-1.23,2.17-.18,4.38-.28,6.59-.32,1.48-.02,2.55.6,3.22,1.5.93,1.25,1.12,3.06.59,4.56Z"/>
  <path class="cls-1" d="M194.47,598.97c-5.92,24.07-19.33,45.34-39.56,59.03-50.49,34.11-110.88-4.08-153.02-34.87-4.45-3.24-.2-10.87,4.28-7.6,5.28,3.85,10.61,7.67,16,11.35,23,15.66,48.29,30.42,75.88,34.66,13.27,2.04,26.97.99,39.51-4.06,11.86-4.77,22.44-13.16,30.65-23.17,8.44-10.27,14.05-22.45,17.48-35.33h8.77Z"/>
  <path class="cls-2" d="M332.45,72.26c-4.79-7.53-10.13-14.66-16.06-21.25-20.86-23.22-48.79-39.37-79.43-41.87,2.26-.19,4.51-.3,6.79-.33,2-.04,3.28-1.23,3.82-2.74.53-1.5.34-3.31-.59-4.56,5.77.95,11.46,2.34,17.02,4.15,31.64,10.29,57.72,33.74,75.76,62.18,3.02,4.73-4.33,9.15-7.31,4.43Z"/>
  <path class="cls-2" d="M370.19,235.84c-3.55,35.77-11.54,70.88-21.64,105.23-10.23,34.82-22.61,68.9-35.18,102.87-6.14,16.63-12.29,33.27-18.52,49.88-6.19,16.52-10.47,33.9-11.91,51.6-1.43,17.49-.76,36.24,3.87,53.55h-8.64c-.9-3.8-1.61-7.65-2.19-11.54-2.72-18.33-2.72-36.82,0-55.16,1.32-8.94,3.31-17.77,5.87-26.41,2.58-8.76,5.97-17.19,9.1-25.74,6.3-17.19,12.73-34.32,19.03-51.51,12.85-34.98,25.24-70.18,35.01-106.21,9.52-35.1,16.58-71.09,18.26-107.58,1.66-36.65-2.38-73.28-13.44-108.18-1.71-5.4,6.48-7.71,8.18-2.34,2.7,8.5,5.02,17.14,6.94,25.86,7.59,34.62,8.77,70.43,5.26,105.68Z"/>
  <path class="cls-4" d="M452.36,485.98l-5.92,6.14c-1.51-1.55-2.68-2.92-3.56-4.96-.68-1.51-1.31-3.06-2.05-4.54-1.82-3.66-4.63-6.32-7.03-9.55-2.31-3.11-3.94-6.76-6.3-9.78-11.08-14.13-23.27-27.25-35.06-40.73-5.89-6.76-12.59-12.68-18.84-19.11-6.13-6.32-12.22-12.68-18.84-18.46-4.19-3.66,1.85-9.85,5.99-6.23,6.62,5.77,12.71,12.14,18.86,18.46,6.35,6.54,13.15,12.61,19.18,19.49,5.96,6.83,12.05,13.55,18.02,20.36,6.19,7.07,12.3,14.23,18.02,21.71,2.41,3.13,3.97,6.88,6.45,10.01,2.55,3.22,5.23,6,7.06,9.78.85,1.74,1.43,3.89,2.46,5.52.44.67.98,1.28,1.56,1.88Z"/>
  <path class="cls-1" d="M484.38,575.46c-2.9,30.96-23.63,59.13-47.61,76.58-23.49,17.08-52.39,24.37-80.8,20.3-26.83-3.84-51.19-19.72-65.78-43.4-5.74-9.31-9.56-19.41-12.02-29.98h8.64c3.26,12.3,8.54,23.87,16.48,33.78,16.94,21.11,42.14,32,68.41,32.04,27.02.04,53.22-11.44,72.83-30.56,10.03-9.76,18.24-21.32,24.34-34.11,7.35-15.43,9.03-32.55,5.55-49.31-3.53-17.03-11.24-32.76-20.04-47.47-2.34-3.91-4.55-7.65-7.69-10.93-.02-.04-.03-.05-.07-.09-.07-.07-.14-.12-.19-.19l5.92-6.14c.08.07.17.14.24.23.75.72,1.53,1.43,2.21,2.15,3.11,3.36,5.35,7.86,7.67,11.82,4.57,7.72,8.77,15.68,12.27,23.98,6.81,16.08,11.29,33.62,9.64,51.3Z"/>
  <path class="cls-4" d="M416.31,59.78c-7.62,2.76-15.17,5.67-22.69,8.69-14.78,5.95-29.34,12.42-43.69,19.42-12.85,6.28-25.54,13.07-37.19,21.53-11.2,8.13-21.37,18.03-28.84,29.94-7.26,11.59-12,24.6-14.6,38.12-5.4,28.2-1.02,57.34,8.91,83.9,10.71,28.71,27.65,54.54,45.54,78.89,1.41,1.9.27,4.93-1.51,6.02-2.16,1.3-4.43.32-5.8-1.58-2.33-3.15-4.62-6.32-6.87-9.5-17.99-25.4-34.18-52.75-43.43-82.95-8.59-28.01-10.54-58.76-2.65-87.21,3.87-13.92,10.17-26.95,18.82-38.34,9.03-11.88,20.59-21.48,32.86-29.52,12.61-8.25,26.09-14.94,39.65-21.29,14.94-7.02,30.09-13.51,45.45-19.46,4.19-1.62,8.38-3.18,12.59-4.72l3.45,8.04Z"/>
  <path class="cls-1" d="M496.96,36.01c-3.89.9-7.76,1.81-11.63,2.78-23.34,5.77-46.38,12.77-69.03,20.99l-3.45-8.04c26.78-9.76,54.12-17.84,81.84-24.21,5.33-1.23,7.59,7.27,2.26,8.48Z"/>
  <ellipse class="cls-3" cx="193.74" cy="598.02" rx="30.99" ry="32.13"/>
  <ellipse class="cls-3" cx="278.75" cy="598.97" rx="30.99" ry="32.13"/>
</svg>