<?xml version="1.0" encoding="UTF-8"?>
<svg id="Layer_1" data-name="Layer 1" xmlns="http://www.w3.org/2000/svg" viewBox="0 0 503.77 673.45">
  <defs>
    <style>
      .cls-1 {
        fill: #231f20;
      }

      .cls-2 {
        fill: #ed1c24;
      }

      .cls-3 {
        fill: #f99b1c;
      }
    </style>
  </defs>
  <path class="cls-2" d="M247.57,6.05c-.54,1.51-1.82,2.71-3.82,2.74-2.27.04-4.53.14-6.79.33-5.63.44-11.22,1.35-16.73,2.71-51.71,12.72-87.44,60.93-100.98,112.12-17.65,66.68-6.21,137.83,11.2,203.22,9.06,34.01,20.4,67.35,32.96,100.12,11.97,31.19,25.14,62.37,31.38,95.48,4.65,24.7,5.77,50.7-.1,75.3-.07.3-.14.58-.22.88h-8.77c2.8-10.49,4.16-21.41,4.43-32.18.71-27.73-5.36-54.75-13.97-80.84-10.91-33.15-24.86-65.15-36.12-98.19-11.32-33.16-20.96-67-27.94-101.44-12.78-63.2-17.18-133.25,8.94-193.62C140.65,47.41,179.26,9.54,226.93,1.55c3.36-.56,6.77-.99,10.23-1.23,2.17-.18,4.38-.28,6.59-.32,1.48-.02,2.55.6,3.22,1.5.93,1.25,1.12,3.06.59,4.56Z"/>
  <path class="cls-1" d="M194.47,598.97c-5.92,24.07-19.33,45.34-39.56,59.03-50.49,34.11-110.88-4.08-153.02-34.87-4.45-3.24-.2-10.87,4.28-7.6,5.28,3.85,10.61,7.67,16,11.35,23,15.66,48.29,30.42,75.88,34.66,13.27,2.04,26.97.99,39.51-4.06,11.86-4.77,22.44-13.16,30.65-23.17,8.44-10.27,14.05-22.45,17.48-35.33h8.77Z"/>
  <path class="cls-2" d="M332.45,72.26c-4.79-7.53-10.13-14.66-16.06-21.25-20.86-23.22-48.79-39.37-79.43-41.87,2.26-.19,4.51-.3,6.79-.33,2-.04,3.28-1.23,3.82-2.74.53-1.5.34-3.31-.59-4.56,5.77.95,11.46,2.34,17.02,4.15,31.64,10.29,57.72,33.74,75.76,62.18,3.02,4.73-4.33,9.15-7.31,4.43Z"/>
  <path class="cls-2" d="M370.19,235.84c-3.55,35.77-11.54,70.88-21.64,105.23-10.23,34.82-22.61,68.9-35.18,102.87-6.14,16.63-12.29,33.27-18.52,49.88-6.19,16.52-10.47,33.9-11.91,51.6-1.43,17.49-.76,36.24,3.87,53.55h-8.64c-.9-3.8-1.61-7.65-2.19-11.54-2.72-18.33-2.72-36.82,0-55.16,1.32-8.94,3.31-17.77,5.87-26.41,2.58-8.76,5.97-17.19,9.1-25.74,6.3-17.19,12.73-34.32,19.03-51.51,12.85-34.98,25.24-70.18,35.01-106.21,9.52-35.1,16.58-71.09,18.26-107.58,1.66-36.65-2.38-73.28-13.44-108.18-1.71-5.4,6.48-7.71,8.18-2.34,2.7,8.5,5.02,17.14,6.94,25.86,7.59,34.62,8.77,70.43,5.26,105.68Z"/>
  <path class="cls-1" d="M477.94,592.07c-1.99-.55-3.62-1.6-4.87-2.97-1.1,3.74-2.49,7.43-4.2,11.01-6.09,12.79-14.31,24.35-24.34,34.11-19.6,19.12-45.81,30.59-72.83,30.56-26.27-.04-51.48-10.93-68.41-32.04-7.94-9.91-13.22-21.48-16.48-33.78h-8.64c2.46,10.57,6.28,20.67,12.02,29.98,14.6,23.68,38.95,39.57,65.78,43.4,28.41,4.06,57.31-3.22,80.8-20.3,19.52-14.2,36.88-35.51,44.23-59.64-1.04.04-2.07-.07-3.06-.34Z"/>
  <ellipse class="cls-3" cx="193.74" cy="598.02" rx="30.99" ry="32.13"/>
  <ellipse class="cls-3" cx="278.75" cy="598.97" rx="30.99" ry="32.13"/>
  <path class="cls-1" d="M490.46,27.25c-5.8,37.6-5.16,75.66-2.72,113.52,2.46,38.01,6.57,75.94,7.22,114.05.37,21.45-.41,42.92-3.15,64.21h8.75l.08-2.28h-8.75c-.31,72.91-.63,146.09-9.89,218.53-2.61,20.41-6,40.71-10.23,60.85-1.16,5.49,7.28,7.84,8.44,2.33,15.19-72.21,18.92-146.15,19.97-219.74.29-20.65.38-41.3.47-61.96.02-5.65-8.56-5.62-8.75,0l-.08,2.28c-.08,2.36,2.07,4.38,4.38,4.38,2.62,0,4.07-2.02,4.38-4.38,4.83-37.55,3.45-75.48.8-113.14s-6.55-75.18-6.71-112.91c-.09-21.2,1.01-42.44,4.24-63.4.36-2.35-.6-4.68-3.06-5.38-2.07-.59-5.02.72-5.38,3.06h0Z"/>
  <path class="cls-2" d="M334.55,74.11c2.91,5.25,5.59,10.62,8.1,16.06,1.23,2.66,2.42,5.33,3.58,8.01,1.3,3,2.13,4.99,3.37,7.97.87,2.11,2.94,3.85,5.38,3.06,2.03-.66,3.99-3.12,3.06-5.38-4.81-11.61-9.84-23.14-15.94-34.14-1.11-2-4.03-2.83-5.99-1.57s-2.76,3.84-1.57,5.99h0Z"/>
</svg>